# xmcd
#
# Track frame offsets: 
#        150
#        14801
#        26943
#        43551
#        65519
#        84497
#        101134
#        125632
#
# Disc length: 1921 seconds
#
# Revision: 0
# Processed by: cddbd v1.5.1PL0 Copyright (c) Steve Scherf et al.
# Submitted via: ExactAudioCopy v0.95a5
#
DISCID=70077f08
DTITLE=Midnight Ride - Get your boots on....
DYEAR=1999
DGENRE=Country
TTITLE0=End of the Line
TTITLE1=Ridin' Through the Night
TTITLE2=Share Your Dreams (Patty's song)
TTITLE3=I'm Gonna Tell Her
TTITLE4=That Dance
TTITLE5=Keep It Loose
TTITLE6=The Lesson
TTITLE7=Doggone Guilty
EXTD=
EXTT0=
EXTT1=
EXTT2=
EXTT3=
EXTT4=
EXTT5=
EXTT6=
EXTT7=
PLAYORDER=
